<svg width="28" height="28" viewBox="0 0 28 28" fill="none" xmlns="http://www.w3.org/2000/svg">
<path d="M7.81252 15.4542L11.9396 11.3271L1.70211 1.10417C0.609596 2.19983 -0.00390625 3.68397 -0.00390625 5.23125C-0.00390625 6.77852 0.609596 8.26267 1.70211 9.35833L7.81252 15.4542ZM17.7 12.8146C19.9313 13.85 23.0667 13.1208 25.3854 10.8021C28.1709 8.01666 28.7104 4.02083 26.5667 1.87708C24.4375 -0.252084 20.4417 0.272916 17.6417 3.05833C15.3229 5.37708 14.5938 8.5125 15.6292 10.7437L1.39586 24.9771L3.45211 27.0333L13.5 17.0146L23.5334 27.0479L25.5896 24.9917L15.5563 14.9583L17.7 12.8146Z" fill="#FECD33"/>
</svg>
