<svg width="50" height="31" viewBox="0 0 50 31" fill="none" xmlns="http://www.w3.org/2000/svg">
<path d="M47.5668 0.00205102C47.0473 0.00205102 46.5386 0.175221 46.1165 0.489094L45.2507 1.14931C46.2572 1.83117 47.2746 2.81608 47.9889 4.20145L49.2661 3.433C49.9046 3.04337 50.1644 2.24245 49.8938 1.54977C49.6016 0.835436 49.0063 0.294277 48.2703 0.088636C48.0322 0.0236969 47.7941 -0.00877217 47.5668 0.00205102ZM43.7138 2.29657L33.4101 10.0676C34.2327 10.4031 35.0552 10.901 35.8237 11.6153L46.4412 5.15389C45.7702 3.74687 44.6987 2.85937 43.7138 2.29657ZM31.6567 11.388L30.0224 12.6111L32.9014 13.4012L34.211 12.6002C33.3776 11.94 32.4793 11.5829 31.6567 11.388ZM17.9979 12.7734C14.2963 12.7734 10.8546 13.0981 8.00591 13.6609C7.82949 13.6934 7.65416 13.7367 7.48207 13.7691C8.43451 13.899 9.41942 14.1588 10.3502 14.6242C12.6555 14.2995 15.2531 14.1263 18.0022 14.1263C24.5611 14.1263 30.254 15.1545 33.0789 16.6914C33.6092 16.9836 34.0313 17.2975 34.3236 17.6222C34.5292 17.8603 34.6591 18.0984 34.6591 18.3582C34.6591 18.6071 34.5292 18.856 34.3236 19.0941C34.0313 19.4188 33.6092 19.7219 33.0789 20.0141C30.254 21.5618 24.5611 22.59 18.0022 22.59C16.2488 22.59 14.5496 22.5143 12.9586 22.3736C12.7638 22.7199 12.4499 23.0013 12.0495 23.1637C11.1295 23.5317 10.0796 23.0771 9.71164 22.1463L9.6467 21.9731C8.0124 21.7134 6.55344 21.3887 5.31851 20.999C5.09339 21.2155 4.80658 21.3778 4.47647 21.4644C3.50888 21.6917 2.53371 21.0964 2.30101 20.1332L2.15273 19.5163C1.9709 19.3756 1.81397 19.2348 1.68625 19.0941C1.47845 18.856 1.34857 18.6071 1.34857 18.3582C1.34857 18.0984 1.47845 17.8603 1.68625 17.6222L1.69708 17.6114C1.56503 17.0919 1.4384 16.5182 1.43624 16.042C0.483796 16.7563 0 17.5573 0 18.3473V18.3582C0 18.5963 0.0465396 18.8452 0.138537 19.0941C2.23499 28.283 11.5905 30.859 17.9979 30.859C24.416 30.859 33.7673 28.283 35.867 19.0941C35.9644 18.8452 36.0077 18.5963 36.0077 18.3582V18.3473C36.0077 17.3516 35.2392 16.3342 33.724 15.5117C30.7692 13.899 24.8381 12.7734 17.9979 12.7734ZM5.83045 14.9922C4.17991 14.9705 2.92984 15.3169 2.92984 15.3169C2.72744 15.8364 2.74801 16.3234 2.89195 16.778C5.70923 18.1525 9.90213 17.8278 9.90213 17.8278C10.1727 17.33 10.2052 16.5291 10.0104 15.9879C8.64664 15.2194 7.11516 14.9922 5.83045 14.9922ZM27.7279 16.2585C27.3816 16.2368 27.0136 16.5615 26.8512 17.0486C26.6564 17.5897 26.8079 18.1525 27.1868 18.2716C27.5656 18.4015 28.0201 18.0551 28.2041 17.514C28.3881 16.962 28.2366 16.41 27.8686 16.2801C27.8253 16.2693 27.7712 16.2585 27.7279 16.2585ZM3.2751 18.4015L3.61603 19.8193C3.67447 20.0574 3.91799 20.2089 4.15935 20.144C4.40179 20.0899 4.55115 19.8409 4.4927 19.6028L4.27408 18.7045C3.93639 18.6179 3.60196 18.5205 3.2751 18.4015ZM10.8221 18.8344C10.5948 19.0292 10.3134 19.1591 10.0104 19.1807H9.98872L10.9628 21.6484C11.0602 21.8757 11.32 21.9948 11.5473 21.8974C11.7854 21.8108 11.8936 21.551 11.807 21.3129L10.8221 18.8344ZM26.7538 19.0184C26.4075 18.9967 26.0395 19.3214 25.8772 19.8085C25.6823 20.3496 25.8339 20.9124 26.2127 21.0315C26.5915 21.1614 27.0461 20.815 27.2301 20.2739C27.414 19.7219 27.2625 19.1699 26.8945 19.04C26.8512 19.0292 26.7971 19.0184 26.7538 19.0184Z" fill="#FECD33"/>
</svg>
